<?xml version="1.0" encoding="UTF-8" standalone="no"?>
<svg
   xmlns:dc="http://purl.org/dc/elements/1.1/"
   xmlns:cc="http://creativecommons.org/ns#"
   xmlns:rdf="http://www.w3.org/1999/02/22-rdf-syntax-ns#"
   xmlns:svg="http://www.w3.org/2000/svg"
   xmlns="http://www.w3.org/2000/svg"
   xmlns:sodipodi="http://sodipodi.sourceforge.net/DTD/sodipodi-0.dtd"
   xmlns:inkscape="http://www.inkscape.org/namespaces/inkscape"
   version="1.1"
   id="svg2"
   xml:space="preserve"
   width="1333.3333"
   height="1066.6667"
   viewBox="0 0 1333.3333 1066.6667"
   sodipodi:docname="10012019-08.eps"><metadata
     id="metadata8"><rdf:RDF><cc:Work
         rdf:about=""><dc:format>image/svg+xml</dc:format><dc:type
           rdf:resource="http://purl.org/dc/dcmitype/StillImage" /></cc:Work></rdf:RDF></metadata><defs
     id="defs6"><clipPath
       clipPathUnits="userSpaceOnUse"
       id="clipPath20"><path
         d="m 4285.24,3841.41 c 10.74,-46.75 109.33,64.77 247.41,232.86 76.97,93.7 159.05,191.55 221.06,240.87 -128.82,117.45 -249.67,236.19 -289.6,276.12 -90.89,90.88 -122.23,38.18 -155.24,-0.84 -33.02,-39.02 27.01,-153.08 21,-309.16 -4.17,-108.57 -62.05,-111.11 -96.92,-102.6 -59.14,-121.45 -135.84,-255.22 -102.52,-260.48 57.03,-9 464.41,530.45 527.44,467.41 63.04,-63.03 -383.36,-497.42 -372.63,-544.18 z"
         id="path18" /></clipPath><radialGradient
       fx="0"
       fy="0"
       cx="0"
       cy="0"
       r="1"
       gradientUnits="userSpaceOnUse"
       gradientTransform="matrix(2759.86,-4934.75,-4934.75,-2759.86,2989.73,5683.6)"
       spreadMethod="pad"
       id="radialGradient26"><stop
         style="stop-opacity:1;stop-color:#7eca2d"
         offset="0"
         id="stop22" /><stop
         style="stop-opacity:1;stop-color:#4a8333"
         offset="1"
         id="stop24" /></radialGradient><clipPath
       clipPathUnits="userSpaceOnUse"
       id="clipPath36"><path
         d="m 4028.38,4050.25 c 58.86,101.22 113.8,194.5 159.25,255.14 -17,99.33 -42.11,234.79 -61.87,294.04 -33.01,99.05 -12,288.15 -69.03,417.22 -19.44,44 -153.35,167.57 -321.38,311.31 -350.63,-334.01 -569.16,-805.47 -569.16,-1327.96 0,-327.17 85.78,-634.27 235.93,-900.21 65.72,62.06 113.1,107.14 128,122.02 72.03,72.04 135.07,345.19 198.1,444.24 63.03,99.05 188.77,192.64 300.16,384.2 z"
         id="path34" /></clipPath><radialGradient
       fx="0"
       fy="0"
       cx="0"
       cy="0"
       r="1"
       gradientUnits="userSpaceOnUse"
       gradientTransform="matrix(2759.86,-4934.75,-4934.75,-2759.86,2989.73,5683.6)"
       spreadMethod="pad"
       id="radialGradient42"><stop
         style="stop-opacity:1;stop-color:#7eca2d"
         offset="0"
         id="stop38" /><stop
         style="stop-opacity:1;stop-color:#4a8333"
         offset="1"
         id="stop40" /></radialGradient><clipPath
       clipPathUnits="userSpaceOnUse"
       id="clipPath56"><path
         d="m 5158.59,3285.24 c 46.75,10.74 -64.76,109.33 -232.86,247.4 -93.7,76.98 -191.55,159.06 -240.87,221.07 -117.45,-128.82 -236.19,-249.67 -276.12,-289.6 -90.88,-90.89 -38.18,-122.23 0.84,-155.25 39.02,-33.02 153.08,27.02 309.16,21.01 108.56,-4.17 111.11,-62.05 102.61,-96.92 121.44,-59.14 255.2,-135.85 260.47,-102.52 9,57.03 -530.44,464.41 -467.42,527.44 63.04,63.03 497.44,-383.37 544.19,-372.63 z"
         id="path54" /></clipPath><linearGradient
       x1="0"
       y1="0"
       x2="1"
       y2="0"
       gradientUnits="userSpaceOnUse"
       gradientTransform="matrix(810.778,0,0,-810.778,4358.53,3438.03)"
       spreadMethod="pad"
       id="linearGradient62"><stop
         style="stop-opacity:1;stop-color:#e81067"
         offset="0"
         id="stop58" /><stop
         style="stop-opacity:1;stop-color:#b21552"
         offset="1"
         id="stop60" /></linearGradient><clipPath
       clipPathUnits="userSpaceOnUse"
       id="clipPath78"><path
         d="m 5276.92,3427.59 c 20.52,41.03 -453.59,438.46 -421.21,523.2 -31.99,-39.75 -68.87,-82.91 -107.58,-126.69 154.02,-99.43 508.62,-436.86 528.79,-396.51 z"
         id="path76" /></clipPath><linearGradient
       x1="0"
       y1="0"
       x2="1"
       y2="0"
       gradientUnits="userSpaceOnUse"
       gradientTransform="matrix(529.441,0,0,-529.441,4748.13,3687.52)"
       spreadMethod="pad"
       id="linearGradient84"><stop
         style="stop-opacity:1;stop-color:#e81067"
         offset="0"
         id="stop80" /><stop
         style="stop-opacity:1;stop-color:#b21552"
         offset="1"
         id="stop82" /></linearGradient><clipPath
       clipPathUnits="userSpaceOnUse"
       id="clipPath94"><path
         d="m 5778.18,2530.11 c -72.03,72.04 -345.17,135.07 -444.22,198.11 -99.06,63.03 -192.65,188.77 -384.21,300.15 -101.21,58.86 -194.51,113.8 -255.14,159.25 -99.33,-17 -234.79,-42.11 -294.03,-61.86 -99.06,-33.01 -288.16,-12 -417.23,-69.03 -44,-19.45 -167.57,-153.36 -311.31,-321.38 334.01,-350.63 805.47,-569.16 1327.96,-569.16 327.18,0 634.27,85.78 900.21,235.93 -62.07,65.72 -107.13,113.1 -122.03,127.99 z"
         id="path92" /></clipPath><linearGradient
       x1="0"
       y1="0"
       x2="1"
       y2="0"
       gradientUnits="userSpaceOnUse"
       gradientTransform="matrix(2228.17,0,0,-2228.17,3672.04,2676.91)"
       spreadMethod="pad"
       id="linearGradient100"><stop
         style="stop-opacity:1;stop-color:#e81067"
         offset="0"
         id="stop96" /><stop
         style="stop-opacity:1;stop-color:#b21552"
         offset="1"
         id="stop98" /></linearGradient><clipPath
       clipPathUnits="userSpaceOnUse"
       id="clipPath112"><path
         d="m 4950.79,4144.29 c -39.75,31.99 -82.91,68.87 -126.68,107.59 -99.44,-154.03 -436.86,-508.63 -396.52,-528.8 41.03,-20.52 438.46,453.6 523.2,421.21 z"
         id="path110" /></clipPath><radialGradient
       fx="0"
       fy="0"
       cx="0"
       cy="0"
       r="1"
       gradientUnits="userSpaceOnUse"
       gradientTransform="matrix(2759.86,-4934.75,-4934.75,-2759.86,2989.73,5683.6)"
       spreadMethod="pad"
       id="radialGradient118"><stop
         style="stop-opacity:1;stop-color:#7eca2d"
         offset="0"
         id="stop114" /><stop
         style="stop-opacity:1;stop-color:#4a8333"
         offset="1"
         id="stop116" /></radialGradient></defs><sodipodi:namedview
     pagecolor="#ffffff"
     bordercolor="#666666"
     borderopacity="1"
     objecttolerance="10"
     gridtolerance="10"
     guidetolerance="10"
     inkscape:pageopacity="0"
     inkscape:pageshadow="2"
     inkscape:window-width="640"
     inkscape:window-height="480"
     id="namedview4" /><g
     id="g10"
     inkscape:groupmode="layer"
     inkscape:label="ink_ext_XXXXXX"
     transform="matrix(1.3333333,0,0,-1.3333333,0,1066.6667)"><g
       id="g12"
       transform="scale(0.1)"><g
         id="g14"><g
           id="g16"
           clip-path="url(#clipPath20)"><path
             d="m 4285.24,3841.41 c 10.74,-46.75 109.33,64.77 247.41,232.86 76.97,93.7 159.05,191.55 221.06,240.87 -128.82,117.45 -249.67,236.19 -289.6,276.12 -90.89,90.88 -122.23,38.18 -155.24,-0.84 -33.02,-39.02 27.01,-153.08 21,-309.16 -4.17,-108.57 -62.05,-111.11 -96.92,-102.6 -59.14,-121.45 -135.84,-255.22 -102.52,-260.48 57.03,-9 464.41,530.45 527.44,467.41 63.04,-63.03 -383.36,-497.42 -372.63,-544.18"
             style="fill:url(#radialGradient26);fill-opacity:1;fill-rule:nonzero;stroke:none"
             id="path28" /></g></g><g
         id="g30"><g
           id="g32"
           clip-path="url(#clipPath36)"><path
             d="m 4028.38,4050.25 c 58.86,101.22 113.8,194.5 159.25,255.14 -17,99.33 -42.11,234.79 -61.87,294.04 -33.01,99.05 -12,288.15 -69.03,417.22 -19.44,44 -153.35,167.57 -321.38,311.31 -350.63,-334.01 -569.16,-805.47 -569.16,-1327.96 0,-327.17 85.78,-634.27 235.93,-900.21 65.72,62.06 113.1,107.14 128,122.02 72.03,72.04 135.07,345.19 198.1,444.24 63.03,99.05 188.77,192.64 300.16,384.2"
             style="fill:url(#radialGradient42);fill-opacity:1;fill-rule:nonzero;stroke:none"
             id="path44" /></g></g><path
         d="m 4841.42,4714.76 c -46.76,-10.74 64.76,-109.33 232.85,-247.4 93.71,-76.98 191.55,-159.06 240.87,-221.07 117.46,128.82 236.19,249.67 276.12,289.6 90.89,90.89 38.18,122.23 -0.83,155.25 -39.02,33.02 -153.09,-27.02 -309.17,-21.01 -108.56,4.17 -111.1,62.05 -102.6,96.92 -121.44,59.14 -255.21,135.85 -260.48,102.52 -9,-57.03 530.45,-464.41 467.42,-527.44 -63.04,-63.04 -497.43,383.36 -544.18,372.63"
         style="fill:#50abe4;fill-opacity:1;fill-rule:nonzero;stroke:none"
         id="path46" /><path
         d="m 6271.79,4333.95 c -63.04,-99.05 -188.77,-192.64 -300.16,-384.2 -58.86,-101.22 -113.8,-194.5 -159.25,-255.14 17,-99.33 42.11,-234.79 61.86,-294.04 33.02,-99.05 12,-288.15 69.03,-417.22 19.44,-44 153.36,-167.57 321.38,-311.31 350.63,334.01 569.16,805.46 569.16,1327.96 0,327.17 -85.78,634.27 -235.93,900.21 -65.72,-62.07 -113.1,-107.14 -127.99,-122.03 -72.04,-72.03 -135.08,-345.18 -198.1,-444.23"
         style="fill:#f48516;fill-opacity:1;fill-rule:nonzero;stroke:none"
         id="path48" /><g
         id="g50"><g
           id="g52"
           clip-path="url(#clipPath56)"><path
             d="m 5158.59,3285.24 c 46.75,10.74 -64.76,109.33 -232.86,247.4 -93.7,76.98 -191.55,159.06 -240.87,221.07 -117.45,-128.82 -236.19,-249.67 -276.12,-289.6 -90.88,-90.89 -38.18,-122.23 0.84,-155.25 39.02,-33.02 153.08,27.02 309.16,21.01 108.56,-4.17 111.11,-62.05 102.61,-96.92 121.44,-59.14 255.2,-135.85 260.47,-102.52 9,57.03 -530.44,464.41 -467.42,527.44 63.04,63.03 497.44,-383.37 544.19,-372.63"
             style="fill:url(#linearGradient62);fill-opacity:1;fill-rule:nonzero;stroke:none"
             id="path64" /></g></g><path
         d="m 5767.06,3821.34 c 59.13,121.45 135.84,255.22 102.51,260.48 -57.03,9 -464.4,-530.45 -527.44,-467.41 -63.03,63.03 383.37,497.42 372.64,544.18 -10.75,46.75 -109.34,-64.77 -247.41,-232.86 -76.97,-93.7 -159.05,-191.55 -221.07,-240.87 128.83,-117.45 249.67,-236.19 289.61,-276.12 90.88,-90.88 122.23,-38.18 155.24,0.84 33.02,39.02 -27.01,153.08 -21.01,309.16 4.18,108.57 62.06,111.11 96.93,102.6"
         style="fill:#f48516;fill-opacity:1;fill-rule:nonzero;stroke:none"
         id="path66" /><path
         d="m 4723.09,4572.41 c -20.52,-41.03 453.59,-438.46 421.21,-523.2 31.98,39.75 68.86,82.91 107.58,126.68 -154.03,99.44 -508.63,436.87 -528.79,396.52"
         style="fill:#50abe4;fill-opacity:1;fill-rule:nonzero;stroke:none"
         id="path68" /><path
         d="m 5572.41,4276.92 c -41.03,20.52 -438.46,-453.6 -523.2,-421.21 39.75,-31.99 82.91,-68.87 126.69,-107.59 99.43,154.03 436.86,508.63 396.51,528.8"
         style="fill:#f48516;fill-opacity:1;fill-rule:nonzero;stroke:none"
         id="path70" /><g
         id="g72"><g
           id="g74"
           clip-path="url(#clipPath78)"><path
             d="m 5276.92,3427.59 c 20.52,41.03 -453.59,438.46 -421.21,523.2 -31.99,-39.75 -68.87,-82.91 -107.58,-126.69 154.02,-99.43 508.62,-436.86 528.79,-396.51"
             style="fill:url(#linearGradient84);fill-opacity:1;fill-rule:nonzero;stroke:none"
             id="path86" /></g></g><g
         id="g88"><g
           id="g90"
           clip-path="url(#clipPath94)"><path
             d="m 5778.18,2530.11 c -72.03,72.04 -345.17,135.07 -444.22,198.11 -99.06,63.03 -192.65,188.77 -384.21,300.15 -101.21,58.86 -194.51,113.8 -255.14,159.25 -99.33,-17 -234.79,-42.11 -294.03,-61.86 -99.06,-33.01 -288.16,-12 -417.23,-69.03 -44,-19.45 -167.57,-153.36 -311.31,-321.38 334.01,-350.63 805.47,-569.16 1327.96,-569.16 327.18,0 634.27,85.78 900.21,235.93 -62.07,65.72 -107.13,113.1 -122.03,127.99"
             style="fill:url(#linearGradient100);fill-opacity:1;fill-rule:nonzero;stroke:none"
             id="path102" /></g></g><path
         d="m 4221.82,5469.89 c 72.04,-72.04 345.18,-135.07 444.23,-198.11 99.06,-63.03 192.64,-188.77 384.2,-300.15 101.22,-58.86 194.51,-113.8 255.14,-159.25 99.34,17 234.8,42.11 294.04,61.86 99.06,33.01 288.15,12 417.22,69.03 44,19.45 167.57,153.36 311.32,321.38 -334.02,350.63 -805.47,569.16 -1327.97,569.16 -327.17,0 -634.27,-85.78 -900.21,-235.93 62.07,-65.72 107.13,-113.1 122.03,-127.99"
         style="fill:#50abe4;fill-opacity:1;fill-rule:nonzero;stroke:none"
         id="path104" /><g
         id="g106"><g
           id="g108"
           clip-path="url(#clipPath112)"><path
             d="m 4950.79,4144.29 c -39.75,31.99 -82.91,68.87 -126.68,107.59 -99.44,-154.03 -436.86,-508.63 -396.52,-528.8 41.03,-20.52 438.46,453.6 523.2,421.21"
             style="fill:url(#radialGradient118);fill-opacity:1;fill-rule:nonzero;stroke:none"
             id="path120" /></g></g></g></g></svg>
